<svg width="317" height="37" viewBox="0 0 317 37" fill="none" xmlns="http://www.w3.org/2000/svg">
<g clip-path="url(#clip0_106_679)">
<path d="M23.2299 34.15C21.6599 34.15 20.8799 33.51 20.8799 32.23V2.47C20.8799 1.19 21.6599 0.549999 23.2299 0.549999H37.7699C40.4299 0.549999 42.5499 0.919999 44.1499 1.65C45.7499 2.39 46.9199 3.41 47.6499 4.72C48.3899 6.03 48.7499 7.55 48.7499 9.28C48.7499 10.34 48.5299 11.33 48.0799 12.26C47.6299 13.19 47.0299 14 46.2799 14.71C45.5299 15.42 44.6899 15.96 43.7599 16.34L43.8099 16.53C44.9899 16.79 46.0399 17.31 46.9499 18.09C47.8599 18.87 48.5699 19.81 49.0899 20.9C49.5999 21.99 49.8599 23.16 49.8599 24.4C49.8599 26.54 49.4399 28.34 48.5899 29.8C47.7399 31.26 46.4699 32.34 44.7699 33.06C43.0699 33.78 40.9599 34.14 38.4299 34.14H23.2099L23.2299 34.15ZM29.2299 13.75H36.3299C37.7099 13.75 38.7099 13.52 39.3299 13.05C39.9499 12.58 40.2699 11.81 40.2699 10.72C40.2699 9.63 39.9699 8.9 39.3599 8.42C38.7499 7.94 37.7799 7.7 36.4299 7.7H29.2299V13.75ZM29.2299 26.95H37.1499C38.5599 26.95 39.5799 26.69 40.2199 26.16C40.8599 25.63 41.1799 24.79 41.1799 23.64C41.1799 22.49 40.8399 21.6 40.1499 21.07C39.4599 20.54 38.3299 20.28 36.7699 20.28H29.2299V26.95Z" fill="black"/>
<path d="M54.9299 34.15C53.3899 34.15 52.6299 33.51 52.6299 32.23V2.47C52.6299 1.19 53.3999 0.549999 54.9299 0.549999H77.5899C78.7099 0.549999 79.2699 1.43 79.2699 3.19V5.21C79.2699 7 78.7099 7.9 77.5899 7.9H60.9799V13.28H76.2899C77.4099 13.28 77.9699 14.18 77.9699 15.97V17.94C77.9699 19.73 77.4099 20.63 76.2899 20.63H60.9799V26.82H77.6399C78.7599 26.82 79.3199 27.72 79.3199 29.51V31.53C79.3199 33.29 78.7599 34.17 77.6399 34.17H54.9399L54.9299 34.15Z" fill="black"/>
<path d="M116.51 32.23C116.45 31.98 116.37 31.7 116.27 31.42L105.09 2.47C104.8 1.64 104.36 1.1 103.77 0.839999C103.18 0.579999 102.27 0.459999 101.06 0.459999H97.3601C96.1401 0.459999 95.2401 0.579999 94.6501 0.839999C94.0601 1.1 93.6201 1.64 93.3301 2.47L82.1901 31.42C82.0601 31.7 81.9701 31.98 81.9001 32.23C81.8401 32.49 81.8101 32.73 81.8101 32.95C81.8101 33.34 81.9901 33.65 82.3601 33.89C82.7301 34.13 83.4701 34.25 84.5901 34.25H87.6201C88.4501 34.25 89.0801 34.14 89.5101 33.94C89.9401 33.73 90.2701 33.3 90.5001 32.66L92.2101 27.77H105.99L107.68 32.66C107.9 33.34 108.27 33.77 108.78 33.96C109.3 34.15 109.97 34.25 110.8 34.25H114.02C114.98 34.25 115.65 34.13 116.03 33.89C116.42 33.65 116.61 33.34 116.61 32.95C116.61 32.73 116.58 32.49 116.51 32.23ZM94.5301 21.14L98.1301 10.87C98.3201 10.39 98.5001 9.89 98.6601 9.36C98.8201 8.83 98.9401 8.31 99.0401 7.8H99.2301C99.3301 8.31 99.4601 8.83 99.6401 9.36C99.8201 9.89 99.9801 10.39 100.14 10.87L103.69 21.14H94.5301Z" fill="black"/>
<path d="M122.36 34.24C121.18 34.24 120.31 34.08 119.77 33.76C119.23 33.44 118.95 32.99 118.95 32.42V2.28C118.95 1.67 119.22 1.22 119.77 0.910001C120.31 0.610001 121.18 0.450001 122.36 0.450001H123.9C124.67 0.450001 125.29 0.500001 125.77 0.590001C126.25 0.690001 126.67 0.860001 127.04 1.12C127.41 1.38 127.8 1.74 128.22 2.22L141.76 18.06C142.37 18.8 142.95 19.56 143.51 20.36C144.07 21.16 144.48 21.8 144.73 22.28H144.92C144.82 21.67 144.74 20.95 144.68 20.1C144.62 19.25 144.58 18.41 144.58 17.58V2.28C144.58 1.7 144.85 1.26 145.4 0.940001C145.94 0.620001 146.81 0.460001 147.99 0.460001H149.14C150.36 0.460001 151.23 0.620001 151.76 0.940001C152.29 1.26 152.55 1.71 152.55 2.28V32.42C152.55 33 152.29 33.44 151.76 33.76C151.23 34.08 150.36 34.24 149.14 34.24H147.6C146.86 34.24 146.26 34.19 145.8 34.1C145.34 34 144.93 33.84 144.58 33.6C144.23 33.36 143.86 33.02 143.48 32.57L129.75 16.59C129.11 15.79 128.52 15 127.97 14.21C127.43 13.43 127.03 12.79 126.77 12.31L126.58 12.36C126.68 12.94 126.76 13.65 126.82 14.5C126.88 15.35 126.92 16.19 126.92 17.02V32.43C126.92 33.01 126.65 33.45 126.1 33.77C125.56 34.09 124.69 34.25 123.51 34.25H122.36V34.24Z" fill="black"/>
<path d="M186.07 36.07C180.05 36.07 175.52 34.63 172.46 31.75C169.4 28.87 167.88 24.58 167.88 18.89C167.88 13.2 169.46 8.91 172.63 6.03C175.8 3.15 180.52 1.71 186.79 1.71C188.17 1.71 189.57 1.81 190.99 2.02C192.41 2.23 193.73 2.51 194.93 2.86C196.13 3.21 197.08 3.6 197.79 4.01C198.21 4.27 198.55 4.53 198.82 4.8C199.09 5.07 199.23 5.4 199.23 5.78C199.23 6.07 199.17 6.48 199.06 7C198.95 7.53 198.8 8.06 198.63 8.61C198.45 9.15 198.23 9.6 197.96 9.95C197.69 10.3 197.39 10.48 197.07 10.48C196.59 10.48 195.93 10.36 195.08 10.12C194.23 9.88 193.14 9.64 191.82 9.4C190.49 9.16 188.82 9.04 186.8 9.04C184.53 9.04 182.63 9.34 181.11 9.93C179.59 10.52 178.45 11.54 177.68 12.98C176.91 14.42 176.53 16.39 176.53 18.88C176.53 21.37 176.91 23.34 177.68 24.76C178.45 26.18 179.59 27.2 181.11 27.81C182.63 28.42 184.53 28.72 186.8 28.72C188.34 28.72 189.7 28.62 190.9 28.43C192.1 28.24 193.15 28.03 194.04 27.81C194.94 27.59 195.69 27.38 196.3 27.19C196.91 27 197.37 26.9 197.69 26.9C198.01 26.9 198.29 27.08 198.53 27.45C198.77 27.82 198.97 28.27 199.13 28.82C199.29 29.36 199.41 29.89 199.49 30.4C199.57 30.91 199.61 31.31 199.61 31.6C199.61 32.11 199.54 32.48 199.39 32.7C199.24 32.92 198.89 33.21 198.31 33.56C197.38 34.07 196.22 34.51 194.83 34.88C193.44 35.25 191.97 35.54 190.41 35.74C188.86 35.95 187.41 36.05 186.07 36.05V36.07Z" fill="black"/>
<path d="M206.74 35.78C205.56 35.78 204.69 35.62 204.15 35.3C203.61 34.98 203.33 34.53 203.33 33.96V4C203.33 2.72 204.1 2.08 205.63 2.08H219.31C223.6 2.08 226.81 2.97 228.96 4.74C231.1 6.52 232.18 9.1 232.18 12.49C232.18 13.77 231.93 14.97 231.44 16.09C230.94 17.21 230.26 18.16 229.38 18.95C228.5 19.73 227.42 20.27 226.14 20.56V20.75C226.94 20.97 227.69 21.41 228.4 22.05C229.1 22.69 229.66 23.57 230.08 24.69L233.3 32.99C233.43 33.28 233.52 33.54 233.56 33.78C233.61 34.02 233.63 34.24 233.63 34.43C233.63 34.97 233.39 35.33 232.91 35.51C232.43 35.69 231.61 35.77 230.46 35.77H228.83C227.77 35.77 226.93 35.67 226.29 35.46C225.65 35.25 225.2 34.81 224.95 34.14L222.21 27.18C221.92 26.44 221.63 25.86 221.35 25.43C221.07 25 220.67 24.69 220.17 24.49C219.67 24.3 218.96 24.2 218.03 24.2H211.69V33.94C211.69 34.52 211.43 34.96 210.9 35.28C210.37 35.6 209.52 35.76 208.33 35.76H206.75L206.74 35.78ZM211.68 17.35H219.17C220.77 17.35 221.92 17.04 222.63 16.41C223.33 15.79 223.69 14.79 223.69 13.41C223.69 12.03 223.34 10.95 222.63 10.34C221.93 9.73 220.77 9.43 219.17 9.43H211.68V17.35Z" fill="black"/>
<path d="M239.27 35.68C237.73 35.68 236.97 35.04 236.97 33.76V4C236.97 2.72 237.74 2.08 239.27 2.08H261.93C263.05 2.08 263.61 2.96 263.61 4.72V6.74C263.61 8.53 263.05 9.43 261.93 9.43H245.32V14.81H260.63C261.75 14.81 262.31 15.71 262.31 17.5V19.47C262.31 21.26 261.75 22.16 260.63 22.16H245.32V28.35H261.98C263.1 28.35 263.66 29.25 263.66 31.04V33.06C263.66 34.82 263.1 35.7 261.98 35.7H239.28L239.27 35.68Z" fill="black"/>
<path d="M278.49 35.78C277.27 35.78 276.35 35.66 275.71 35.42C275.07 35.18 274.64 34.63 274.41 33.76L266.49 4.82C266.43 4.53 266.35 4.26 266.27 4C266.19 3.74 266.15 3.5 266.15 3.28C266.15 2.86 266.34 2.54 266.73 2.32C267.11 2.1 267.79 1.98 268.75 1.98H271.87C272.67 1.98 273.35 2.07 273.91 2.24C274.47 2.42 274.83 2.86 274.99 3.56L280.17 28.42H280.36L285.3 3.99C285.46 3.13 285.87 2.57 286.52 2.33C287.18 2.09 288.11 1.97 289.33 1.97H293.07C294.29 1.97 295.22 2.08 295.88 2.31C296.54 2.53 296.94 3.1 297.1 3.99L302 28.42H302.19L307.47 3.56C307.63 2.92 307.94 2.5 308.41 2.29C308.87 2.08 309.52 1.98 310.35 1.98H313.28C314.4 1.98 315.14 2.09 315.51 2.32C315.88 2.54 316.06 2.86 316.06 3.28C316.06 3.5 316.02 3.74 315.94 4C315.86 4.26 315.77 4.53 315.68 4.82L307.81 33.76C307.59 34.62 307.16 35.18 306.54 35.42C305.92 35.66 304.98 35.78 303.73 35.78H300.18C298.96 35.78 298.03 35.66 297.37 35.42C296.71 35.18 296.29 34.63 296.1 33.76L291.2 9.81H291.01L286.11 33.76C285.92 34.62 285.49 35.18 284.84 35.42C284.18 35.66 283.25 35.78 282.03 35.78H278.48H278.49Z" fill="black"/>
<path d="M15.4701 29.6C15.4701 30.33 15.3401 30.96 15.0701 31.48C14.8101 32 14.4101 32.39 13.8901 32.66C13.3701 32.92 12.7401 33.06 11.9901 33.06H7.4901V33.99C7.4901 34.46 7.1201 34.7 6.3701 34.7H5.8001C5.0601 34.7 4.6801 34.46 4.6801 33.99V33.06L2.8301 32.67C2.5701 32.62 2.3901 32.49 2.2701 32.31C2.1601 32.12 2.1001 31.84 2.1001 31.48V30.85C2.1001 30.43 2.1601 30.12 2.2901 29.93C2.4201 29.73 2.6001 29.64 2.8501 29.64H4.6801V27.86C4.6801 27.39 5.0501 27.15 5.8001 27.15H6.3701C7.1301 27.15 7.5101 27.39 7.5101 27.86V29.64H11.7901C12.1301 29.64 12.3601 29.57 12.4801 29.42C12.6001 29.27 12.6601 29.04 12.6601 28.73C12.6601 28.42 12.6101 28.17 12.5201 27.95C12.4301 27.73 12.3801 27.56 12.3801 27.45C12.3801 27.37 12.4501 27.28 12.6001 27.2C12.7501 27.11 12.9301 27.03 13.1601 26.97C13.3801 26.9 13.6101 26.85 13.8401 26.81C14.0701 26.77 14.2501 26.75 14.3901 26.75C14.5501 26.75 14.7201 26.89 14.8901 27.18C15.0601 27.46 15.2001 27.83 15.3101 28.26C15.4201 28.7 15.4701 29.16 15.4701 29.63V29.6Z" fill="black"/>
<path d="M15.35 24.15C15.35 24.64 15.29 24.99 15.16 25.21C15.03 25.43 14.84 25.54 14.58 25.54H0.75C0.49 25.54 0.3 25.43 0.18 25.21C0.06 24.99 0 24.63 0 24.15V23.54C0 23.05 0.06 22.7 0.18 22.48C0.3 22.26 0.49 22.15 0.75 22.15H6.35C5.98 21.81 5.67 21.41 5.41 20.94C5.15 20.47 4.94 19.97 4.78 19.44C4.62 18.91 4.55 18.38 4.55 17.85C4.55 16.94 4.71 16.19 5.02 15.59C5.33 14.99 5.79 14.54 6.41 14.24C7.03 13.94 7.79 13.79 8.71 13.79H14.59C14.85 13.79 15.04 13.9 15.17 14.11C15.3 14.33 15.36 14.68 15.36 15.18V15.81C15.36 16.3 15.3 16.65 15.17 16.87C15.04 17.09 14.85 17.2 14.59 17.2H9.34C8.65 17.2 8.14 17.35 7.81 17.65C7.48 17.95 7.31 18.45 7.31 19.17C7.31 19.48 7.37 19.82 7.48 20.17C7.6 20.53 7.75 20.87 7.96 21.2C8.16 21.53 8.41 21.83 8.71 22.1H14.59C14.85 22.1 15.04 22.21 15.17 22.42C15.3 22.64 15.36 22.99 15.36 23.49V24.12L15.35 24.15Z" fill="black"/>
<path d="M15.47 5.68C15.47 7.84 15.02 9.42 14.13 10.4C13.24 11.39 11.87 11.88 10.03 11.88C8.76004 11.88 7.72004 11.63 6.91004 11.14C6.10004 10.65 5.50004 9.94 5.12004 9.03C4.73004 8.12 4.54004 7.03 4.54004 5.76C4.54004 4.37 4.76004 3.25 5.21004 2.41C5.66004 1.57 6.26004 0.960002 7.02004 0.570002C7.78004 0.180002 8.65004 -0.00999832 9.63004 -0.00999832C9.81004 -0.00999832 10.01 0.0600017 10.24 0.210002C10.47 0.360002 10.67 0.530002 10.83 0.740002C10.99 0.940002 11.07 1.14 11.07 1.33V8.39C11.64 8.32 12.07 8.08 12.38 7.67C12.68 7.26 12.84 6.58 12.84 5.63C12.84 4.95 12.78 4.34 12.66 3.77C12.54 3.21 12.42 2.73 12.31 2.33C12.2 1.93 12.14 1.64 12.14 1.47C12.14 1.31 12.26 1.16 12.48 1.01C12.71 0.870002 12.97 0.750002 13.26 0.670002C13.55 0.580002 13.78 0.540002 13.96 0.540002C14.15 0.540002 14.33 0.710002 14.52 1.04C14.7 1.37 14.86 1.79 15.01 2.31C15.15 2.82 15.27 3.38 15.35 3.97C15.44 4.57 15.48 5.13 15.48 5.67L15.47 5.68ZM8.98004 8.38V3.26C8.30004 3.26 7.82004 3.47 7.54004 3.89C7.26004 4.31 7.11004 4.94 7.11004 5.78C7.11004 6.32 7.17004 6.78 7.28004 7.15C7.40004 7.52 7.59004 7.81 7.86004 8.01C8.13004 8.21 8.50004 8.33 8.98004 8.37V8.38Z" fill="black"/>
</g>
<defs>
<clipPath id="clip0_106_679">
<rect width="316.07" height="36.07" fill="white"/>
</clipPath>
</defs>
</svg>
